<svg width="16" height="13" viewBox="0 0 16 13" fill="none" xmlns="http://www.w3.org/2000/svg">
<path fill-rule="evenodd" clip-rule="evenodd" d="M15.5 2.19562C14.9481 2.43937 14.355 2.60563 13.7325 2.67875C14.3675 2.29813 14.8556 1.695 15.085 0.976875C14.4919 1.32875 13.8325 1.585 13.1319 1.72438C12.57 1.12625 11.7694 0.75 10.8856 0.75C9.18625 0.75 7.80688 2.12937 7.80688 3.82875C7.80688 4.07062 7.83375 4.305 7.8875 4.52938C5.32937 4.4025 3.06125 3.17687 1.545 1.31375C1.27875 1.76812 1.1275 2.29812 1.1275 2.86187C1.1275 3.92875 1.66938 4.87125 2.49688 5.42313C1.99188 5.40563 1.51813 5.26938 1.10313 5.03688C1.10313 5.05188 1.10313 5.06375 1.10313 5.07625C1.10313 6.56812 2.1625 7.81313 3.57125 8.09375C3.3125 8.16437 3.04125 8.20375 2.76063 8.20375C2.56313 8.20375 2.3675 8.18438 2.18187 8.1475C2.5725 9.37063 3.71062 10.2594 5.05562 10.2862C4.00312 11.1112 2.675 11.6019 1.235 11.6019C0.985625 11.6019 0.741875 11.5875 0.5 11.5581C1.8625 12.4325 3.47875 12.9425 5.21688 12.9425C10.8781 12.9425 13.9744 8.2525 13.9744 4.185C13.9744 4.05313 13.9694 3.91875 13.9644 3.78688C14.565 3.3525 15.0875 2.81062 15.5 2.19562Z" fill="white"/>
</svg>
