<svg width="16" height="16" viewBox="0 0 16 16" fill="none" xmlns="http://www.w3.org/2000/svg">
<path d="M8 0.5C3.85693 0.5 0.5 3.85693 0.5 8C0.5 11.1787 2.47754 13.8911 5.26807 14.9849C5.20215 14.3916 5.14111 13.481 5.29248 12.8315C5.4292 12.248 6.17139 9.10352 6.17139 9.10352C6.17139 9.10352 5.94922 8.6543 5.94922 7.99023C5.94922 6.94775 6.55225 6.16895 7.3042 6.16895C7.94385 6.16895 8.25391 6.6499 8.25391 7.22607C8.25391 7.87061 7.84375 8.83252 7.63135 9.72363C7.45557 10.4707 8.00732 11.0786 8.74219 11.0786C10.0752 11.0786 11.1006 9.67236 11.1006 7.64356C11.1006 5.84912 9.81152 4.59424 7.96826 4.59424C5.83447 4.59424 4.58203 6.19336 4.58203 7.84863C4.58203 8.49316 4.83106 9.18408 5.14111 9.56006C5.20215 9.6333 5.20947 9.69922 5.19238 9.7749C5.13379 10.0117 5.00928 10.522 4.98486 10.6245C4.95068 10.7637 4.875 10.793 4.7334 10.7246C3.7959 10.29 3.20996 8.92041 3.20996 7.81934C3.20996 5.45361 4.92871 3.28076 8.16602 3.28076C10.7686 3.28076 12.79 5.13379 12.79 7.61426C12.79 10.1973 11.1592 12.2773 8.89844 12.2773C8.13916 12.2773 7.42383 11.8843 7.17969 11.418C7.17969 11.418 6.80371 12.8486 6.71094 13.2002C6.54248 13.8521 6.08594 14.6675 5.77832 15.1655C6.48145 15.3828 7.22607 15.5 8 15.5C12.1431 15.5 15.5 12.1431 15.5 8C15.5 3.85693 12.1431 0.5 8 0.5Z" fill="white"/>
</svg>
